<?xml version="1.0" standalone="no"?>
<!DOCTYPE svg PUBLIC "-//W3C//DTD SVG 20010904//EN"
 "http://www.w3.org/TR/2001/REC-SVG-20010904/DTD/svg10.dtd">
<svg xmlns="http://www.w3.org/2000/svg" viewBox="0 0 100 100" width="32" height="32">
  <!-- Fondo circular -->
  <circle cx="50" cy="50" r="45" fill="#6d28d9" />
  <!-- Contorno del control de juego -->
  <rect x="20" y="30" width="60" height="40" rx="10" fill="#4c1d95" />
  <!-- Botones -->
  <circle cx="65" cy="40" r="5" fill="#a855f7" />
  <circle cx="75" cy="50" r="5" fill="#a855f7" />
  <circle cx="65" cy="60" r="5" fill="#a855f7" />
  <circle cx="55" cy="50" r="5" fill="#a855f7" />
  <!-- D-pad -->
  <rect x="25" y="40" width="20" height="20" rx="2" fill="#4c1d95" stroke="#a855f7" stroke-width="2" />
  <rect x="32" y="35" width="6" height="30" rx="2" fill="#a855f7" />
  <rect x="20" y="47" width="30" height="6" rx="2" fill="#a855f7" />
  <!-- Texto GH -->
  <path d="M45,65 Q45,60 48,60 L52,60 Q55,60 55,62 L55,64 Q55,66 53,66 L48,66 L48,68 L55,68 M60,60 L60,68 L65,68 L65,66 L62,66 L62,60" fill="white" />
</svg>